<svg width="529" height="385" viewBox="0 0 529 385" fill="none" xmlns="http://www.w3.org/2000/svg">
<path d="M236.904 54.5001C259.614 15.1668 316.386 15.1667 339.095 54.5L445.617 239C468.326 278.333 439.939 327.5 394.521 327.5H181.479C136.061 327.5 107.674 278.333 130.383 239L236.904 54.5001Z" fill="url(#paint0_linear_1_17)"/>
<path d="M362.659 51.7525C405.536 53.0829 437.527 68.7951 452.698 95.9754C467.87 123.156 465.193 159.96 445.164 199.564C425.135 239.168 389.114 278.884 343.779 311.349C298.443 343.813 246.871 366.823 198.623 376.111C150.375 385.399 108.727 380.336 81.3998 361.861C54.0727 343.385 42.9214 312.75 50.0136 275.636C57.1058 238.523 81.9603 197.449 119.968 160.031C157.976 122.613 206.559 91.389 256.708 72.1495L256.562 85.8966C211.2 103.299 167.255 131.542 132.875 165.389C98.4951 199.235 76.0132 236.388 69.5981 269.958C63.1829 303.529 73.2697 331.239 97.9881 347.951C122.706 364.663 160.379 369.243 204.021 360.842C247.663 352.44 294.312 331.627 335.32 302.261C376.327 272.896 408.91 236.971 427.027 201.148C445.144 165.325 447.565 132.034 433.842 107.448C420.119 82.8624 391.182 68.6501 352.398 67.4466L362.659 51.7525Z" fill="white"/>
<defs>
<linearGradient id="paint0_linear_1_17" x1="288" y1="-34" x2="288" y2="448" gradientUnits="userSpaceOnUse">
<stop stop-color="#7300FF"/>
<stop offset="1" stop-color="#FF0022"/>
</linearGradient>
</defs>
</svg>
