<svg width="350" height="354" viewBox="0 0 350 354" fill="none" xmlns="http://www.w3.org/2000/svg">
<path d="M173.485 0.29246C174.077 0.029821 174.95 -0.0758179 175.424 0.0580849C177.234 0.570173 187.445 5.3894 191.254 7.52879C209.066 17.5346 222.269 31.6997 229.616 48.4253C230.246 48.2147 230.884 48.0084 231.536 47.8081C251.852 41.5654 272.609 43.4845 295.533 53.7241C301.135 56.2269 300.563 55.4765 303.9 64.7046C310.862 83.9566 312.003 101.868 307.389 119.474C307.037 120.817 306.596 122.244 306.089 123.715C324.792 133.258 338.298 148.894 347.711 171.893C350.035 177.572 350.139 176.633 346.18 185.612C337.921 204.344 326.377 218.087 310.882 227.635C308.431 229.145 305.458 230.658 302.332 232.031C303.869 236.229 305.037 240.523 305.83 244.906C309.072 262.822 306.36 282.488 298.038 301.385L296.889 303.995C296.678 304.472 296.291 304.848 295.807 305.043L294.136 305.718C281.988 310.624 267.412 313.698 255.626 313.84C246.393 313.952 236.732 312.293 227.796 309.203C226.406 311.989 224.853 314.683 223.139 317.283C213.112 332.48 197.569 344.831 178.501 352.752L175.868 353.846C175.387 354.046 174.846 354.05 174.361 353.858L172.685 353.191C160.512 348.351 147.847 340.509 139.223 332.473C131.062 324.867 124.232 314.961 119.796 304.589C118.646 304.998 117.482 305.386 116.308 305.747C96.3818 311.873 74.5533 309.829 52.241 299.747L48.0936 297.873C47.6074 297.653 47.2289 297.248 47.0428 296.748L44.7352 290.542C37.7137 271.669 36.0972 254.477 39.7762 237.795C40.3727 235.091 41.1887 232.259 42.1649 229.439C24.4345 219.954 10.7149 203.762 1.85042 181.832L0.145341 177.613C-0.0545443 177.118 -0.0478503 176.564 0.162919 176.074L2.77815 169.992C10.7327 151.492 21.4346 137.942 35.6151 128.416C38.7505 126.31 42.345 124.314 46.0448 122.582C38.2646 102.194 39.081 78.8947 48.6141 55.7554L51.0194 49.9194C51.2664 49.3205 51.8244 48.642 52.2596 48.4116C53.9222 47.532 64.6355 43.9663 68.868 42.8833C87.488 38.12 105.699 38.8368 121.832 44.7856C130.795 26.796 146.622 12.2161 167.716 2.85301L173.485 0.29246ZM137.422 297.607C136.777 296.938 135.755 296.801 134.957 297.277L132.624 298.668C131.368 299.417 130.029 300.144 128.629 300.845C131.938 308.635 136.731 315.94 142.76 322.229C150.606 330.414 157.141 335.13 168.193 340.584L173.907 343.405C174.439 343.667 175.061 343.68 175.603 343.439L178.611 342.105C193.439 335.526 206.372 325.029 214.473 312.998C216.073 310.623 217.539 308.103 218.853 305.504C215.928 304.08 213.14 302.495 210.545 300.757L207.835 298.943C207.061 298.425 206.033 298.509 205.354 299.146L188.483 314.975L171.891 330.541C171.093 331.29 169.842 331.258 169.083 330.47L153.387 314.178L137.422 297.607ZM178.77 36.5171C178.008 35.7186 176.742 35.6892 175.943 36.4516L159.787 51.8764C143.236 67.6783 142.153 68.6503 141.658 68.144C140.224 66.6753 133.644 61.6599 130.902 59.9468C129.579 59.1198 128.234 58.3425 126.87 57.6118C126.047 60.0404 125.363 62.5196 124.822 65.0434C124.319 67.3917 123.772 70.9533 123.605 72.9575L123.455 74.7759C123.369 75.8092 122.507 76.6061 121.471 76.6108L98.9266 76.7134L76.5526 76.8149C75.4469 76.8202 74.5554 77.7219 74.5623 78.8276L74.6981 100.178C74.7795 113.019 74.7333 123.936 74.5955 124.442C74.3733 125.248 73.9209 125.384 70.6102 125.633C66.743 125.925 62.8602 126.651 59.0311 127.778C59.5132 128.647 60.0136 129.508 60.536 130.358C61.794 132.403 63.8572 135.357 65.1209 136.921L66.2674 138.34C66.9192 139.147 66.8463 140.318 66.0994 141.038L49.8641 156.68L33.7528 172.204C32.9563 172.971 32.9332 174.24 33.702 175.035L48.5448 190.383C57.4722 199.616 64.9776 207.544 65.2254 208.003C65.6212 208.74 65.388 209.151 63.1658 211.618C59.7147 215.45 56.7724 219.855 54.4051 224.666C59.3392 226.544 64.495 227.806 69.8104 228.404L72.7127 228.73C73.6618 228.837 74.4028 229.6 74.4823 230.551L74.6502 232.57C74.8178 234.581 74.8674 245.404 74.7606 256.622L74.5858 275.009C74.5754 276.117 75.4687 277.023 76.577 277.028L98.9354 277.129L121.472 277.233C122.508 277.238 123.369 278.034 123.455 279.067L123.598 280.792C123.902 284.457 124.542 288.113 125.494 291.713C128.294 290.191 130.988 288.455 133.555 286.501L135.88 284.734C136.64 284.156 137.703 284.195 138.418 284.829L139.932 286.172C141.442 287.511 148.953 295.305 156.622 303.493L169.192 316.913C169.95 317.722 171.221 317.76 172.026 316.999L188.268 301.632L204.639 286.145C205.393 285.433 206.565 285.413 207.341 286.101L208.636 287.25C212.809 290.954 217.528 294.11 222.622 296.654C224.283 291.902 225.39 287.113 225.813 282.623C225.958 281.084 226.173 279.195 226.291 278.425C226.414 277.62 227.107 277.026 227.922 277.026H273.14C274.245 277.026 275.14 276.13 275.14 275.026V230.707C275.141 229.677 275.923 228.815 276.948 228.716L278.264 228.589C282.085 228.22 285.775 227.547 289.357 226.564C287.697 223.433 285.839 220.533 283.831 217.99C282.873 216.776 281.723 215.262 281.277 214.624C280.811 213.956 280.901 213.048 281.49 212.486L314.197 181.26C314.996 180.498 315.025 179.231 314.263 178.432L283.658 146.377C282.947 145.632 282.918 144.469 283.591 143.689L284.454 142.689C288.19 138.361 291.25 133.749 293.676 128.78C292.234 128.283 290.78 127.845 289.315 127.464C284.93 126.326 279.578 125.47 276.833 125.47C275.898 125.47 275.14 124.712 275.14 123.778V78.8169C275.14 77.7125 274.245 76.8169 273.14 76.8169H250.804C227.917 76.8169 226.466 76.7725 226.458 76.0639C226.435 74.0116 225.139 65.8412 224.339 62.7085C224.21 62.2038 224.073 61.7016 223.933 61.2016C223.491 61.4335 223.052 61.6719 222.616 61.9145C218.658 64.1191 214.196 67.1969 212.211 69.0923C211.535 69.7375 210.463 69.7125 209.818 69.0366L178.77 36.5171ZM293.296 235.442C291.168 236.111 289.133 236.647 287.309 237.002L286.235 237.211C285.296 237.394 284.617 238.217 284.617 239.174V284.928C284.617 286.033 283.722 286.928 282.617 286.928H236.757C235.813 286.928 235.008 287.612 234.854 288.543C234.708 289.432 234.015 292.231 233.314 294.763C232.789 296.661 232.201 298.525 231.552 300.355C237.789 302.447 244.392 303.692 251.109 303.99C262.437 304.491 270.42 303.39 282.18 299.703L288.261 297.796C288.827 297.619 289.285 297.199 289.512 296.65L290.764 293.608C296.947 278.61 299.053 262.086 296.604 247.79C295.893 243.637 294.761 239.457 293.296 235.442ZM50.866 233.455C49.0418 239.145 47.943 245.201 47.6541 251.407C47.0909 263.517 48.6541 272.839 53.4149 285.766C54.2214 287.956 55.0802 289.958 55.3241 290.213C55.9951 290.915 65.3482 294.688 69.6414 295.989C86.141 300.988 102.398 300.798 116.622 295.688C116.259 294.416 115.934 293.146 115.652 291.879L114.945 288.696C114.743 287.787 113.94 287.137 113.01 287.129L89.8768 286.928L67.1268 286.73C66.0327 286.72 65.1495 285.834 65.1444 284.74L65.0418 262.116L64.9383 239.107C64.9341 238.177 64.2898 237.373 63.3836 237.166L60.7342 236.561C57.5973 235.845 54.2443 234.784 50.866 233.455ZM302.447 132.586C300.673 136.332 298.696 139.86 296.806 142.528L296.174 143.42C295.62 144.201 295.698 145.265 296.359 145.957L327.955 179.05C328.718 179.849 328.688 181.116 327.889 181.878L294.72 213.547C294.037 214.199 293.926 215.249 294.458 216.029C294.965 216.772 296.397 219.275 297.639 221.591C297.939 222.149 298.228 222.71 298.514 223.271C301.943 221.731 305.286 219.871 308.564 217.679C320.89 209.438 330.267 197.705 337.117 181.951L338.902 177.844C339.116 177.353 339.124 176.796 338.924 176.299L338.164 174.416C335.967 168.964 331.945 161.246 329.027 156.882C322.028 146.415 312.766 138.018 302.447 132.586ZM49.9647 131.245C43.4905 134.306 37.3499 138.515 31.9149 143.702C23.145 152.072 17.8367 159.893 12.3533 172.531C11.4242 174.672 10.6639 176.713 10.6639 177.066C10.6645 178.036 14.824 187.223 17.0311 191.129C24.3747 204.125 34.273 214.182 45.7645 220.624C47.355 217.273 49.1027 214.185 50.8836 211.646L51.7117 210.465C52.2574 209.687 52.1801 208.633 51.5272 207.943L35.7508 191.268L20.0379 174.661C19.3568 173.941 19.3059 172.831 19.9178 172.051L19.993 171.956C20.6209 171.155 28.6401 163.454 37.8143 154.841L53.3377 140.267C54.0163 139.63 54.1651 138.608 53.6971 137.803L51.5711 134.148C51.0135 133.189 50.4792 132.221 49.9647 131.245ZM271.653 55.769C258.354 52.8063 244.813 53.4279 232.918 57.396C233.453 59.1824 233.927 60.9927 234.336 62.8247L234.949 65.5727C235.152 66.4833 235.958 67.1326 236.891 67.1372L249.512 67.1977C257.33 67.2352 268.427 67.2836 274.172 67.3052L282.625 67.3374C283.726 67.3417 284.617 68.2359 284.617 69.3374V115.197C284.617 115.907 285.109 116.523 285.802 116.681C290.272 117.698 293.896 118.703 297.224 119.88C297.841 117.931 298.379 115.93 298.837 113.874C302.061 99.4016 300.741 84.4395 294.816 68.3139L293.272 64.1118C293.087 63.6087 292.708 63.2011 292.22 62.98L290.37 62.1421C285.016 59.7165 276.777 56.9106 271.653 55.769ZM118.068 53.6616C101.049 47.4164 81.5826 47.9087 61.2293 55.2466L59.6795 55.8052C59.1447 55.998 58.717 56.4099 58.5037 56.937L57.1805 60.2065C48.9334 80.5883 48.2469 101.267 54.9627 119.001C57.3177 118.217 59.5977 117.594 61.7069 117.173L63.1209 116.891C64.0529 116.705 64.7259 115.889 64.7303 114.939L64.8338 91.9848L64.9373 69.1216C64.9418 68.1305 65.6713 67.2921 66.6522 67.1509L66.7723 67.1333C67.7798 66.9882 78.8976 66.9565 91.4803 67.062L112.772 67.2397C113.703 67.2474 114.516 66.6119 114.733 65.7065L115.721 61.5942C116.368 58.8951 117.153 56.2498 118.068 53.6616ZM175.684 10.5298C175.164 10.2999 174.571 10.3017 174.053 10.5356L170.838 11.9868C152.474 20.2768 138.53 33.1308 130.639 48.6616C133.236 50.0012 135.763 51.4903 138.214 53.1274L140.555 54.6919C141.331 55.2102 142.363 55.123 143.041 54.4819L152.21 45.811C157.89 40.4396 165.95 32.8124 170.12 28.8608L176.257 23.0464C177.056 22.2887 178.318 22.3199 179.079 23.1167L210.747 56.2866C211.238 56.8006 212.019 56.9068 212.629 56.5425C215.595 54.7703 218.209 53.3248 220.695 52.1001C213.019 34.5294 198.103 20.4398 177.191 11.1958L175.684 10.5298Z" fill="url(#paint0_linear_2_2)"/>
<defs>
<linearGradient id="paint0_linear_2_2" x1="51.6117" y1="48.9498" x2="296.176" y2="305.107" gradientUnits="userSpaceOnUse">
<stop stop-color="#FF6A00"/>
<stop offset="1" stop-color="#FF9500"/>
</linearGradient>
</defs>
</svg>
