<svg width="332" height="303" viewBox="0 0 332 303" fill="none" xmlns="http://www.w3.org/2000/svg">
<path d="M114.514 29.4998C137.223 -9.83321 193.995 -9.83335 216.704 29.4998L303.093 179.129C284.703 213.959 252.799 248.711 212.929 277.262C199.921 286.577 186.344 295.029 172.477 302.5H59.0882C13.67 302.5 -14.7166 253.333 7.99249 214L81.8157 86.1346C98.7182 76.2585 116.334 67.739 134.17 60.8963L134.318 47.1492C120.611 52.4079 107.021 58.5629 93.7318 65.494L114.514 29.4998ZM323.226 214C345.935 253.333 317.548 302.5 272.13 302.5H197.064C205.328 297.42 213.454 292.03 221.388 286.348C259.3 259.2 290.696 226.978 311.675 193.993L323.226 214Z" fill="url(#paint0_linear_1_17)"/>
<defs>
<linearGradient id="paint0_linear_1_17" x1="165.609" y1="-59.0002" x2="165.609" y2="423" gradientUnits="userSpaceOnUse">
<stop stop-color="#7300FF"/>
<stop offset="1" stop-color="#FF0022"/>
</linearGradient>
</defs>
</svg>
